<svg clip-rule="evenodd" fill-rule="evenodd" height="2048" image-rendering="optimizeQuality" shape-rendering="geometricPrecision" text-rendering="geometricPrecision" viewBox="0 0 2048 2048" width="2048" xmlns="http://www.w3.org/2000/svg"><path d="m1582.48 1627.13 120.82-1353.379 1.58-17.752h-17.8-1326.161-17.801l1.581 17.752 120.689 1353.599 1.006 11.29 10.872 3.01 541.584 150.35h8.69l543.06-150.57 10.87-3.01z" fill="#1572b6"/><path d="m1599.93 351.998h-575.93v1341.362l467.76-129.69z" fill="#35a8db"/><g fill="#e9e9e8"><path d="m1023.36 712.359-406.213 169.178 13.474 167.493 392.739-167.922 417.77-178.613 17.32-171.341z"/><path d="m1023.36 531.162h3.01 3.43 3.42 3.43 3.43 3.43 3.43 3.43 3.43 3.43 3.43 3.43 3.43 3.43 3.43 3.43 3.42 3.43 3.43 3.43 3.43 3.43 3.43 3.43 3.43 3.43 3.43 3.42 3.43 3.43 3.43 3.43 3.43 3.43 3.43 3.43 3.43 3.43 3.43 3.43 3.43 3.43 3.42 3.43 3.43 3.43 3.43 3.43 3.43 3.43 3.43 3.43 3.43 3.43 3.43 3.42 3.43 3.43 3.43 3.43 3.43 3.43 3.43 3.43 3.43 3.43 3.43 3.42 3.43 3.43 3.43 3.43 3.43 3.43 3.43 3.43 3.43 3.43 3.43 3.43 3.43 3.42 3.43 3.43 3.43 3.43 3.43 3.43 3.43 3.43 3.43 3.43 3.43 3.42 3.43 3.43 3.43 3.43 3.43 3.43 3.43 3.43 3.43 3.43 3.43 3.43 3.43 3.42 3.43 3.43 3.43 3.43 3.43 3.43 3.43 3.43 3.43 3.43 3.43 3.43 3.43 3.42 3.43 3.43 3.43 3.43 3.43l-3.43 33.914-3.43 33.911-3.43 33.911-3.43 33.922-3.43 33.912-.17 1.763h-3.25-3.43-3.43-3.43-3.43-3.43-3.43-3.43-3.43-3.43-3.43-3.43-3.43-3.43-3.42-3.43-3.43-3.43-3.43-3.43-3.43-3.43-3.43-3.43-3.43-3.43-3.43-3.43-3.42-3.43-3.43-3.43-3.43-3.43-3.43-3.43-3.43-3.43-3.43-3.43-3.42-3.43-3.43-3.43-3.43-3.43-3.43-3.43-3.43-3.43-3.43-3.43-3.43-3.43-3.42-3.43-3.43-3.43-3.43-3.43-3.43-3.43-3.43-3.43-3.43-3.43-3.42-3.43-3.43-3.43-3.43-3.43-3.43-3.43-3.43-3.43-3.43-3.43-3.43-3.42-3.43-3.43-3.43-3.43-3.43-3.43-3.43-3.43-3.43-3.43-3.43-3.43-3.43-3.43-3.42-3.43-3.43-3.43-3.43-3.43-3.43-3.43-3.43-3.43-3.43-3.42-3.43-3.43-3.43-3.43-3.43-3.43-3.43-3.43-3.33-.1-3.43-3.43-3.43-3.43-3.42-3.43-2.51-.5-.42-3.43-3.43-3.43-3.43-3.43-3.43-3.427-3.429-3.429-3.429-3.43-3.429-3.428-3.43-3.429-3.43-3.429-3.43-3.428-3.429-3.43-3.429-3.43-3.428-3.43-3.429-3.429-3.43-3.429-3.429-3.429-3.43-3.429-3.429-3.43-3.428-3.43-3.429-3.429-3.43-3.428-3.429-3.43-3.43-3.429-3.428-3.43-3.429-3.429-3.43-3.428-3.43-3.429-3.43-3.429-3.429-3.429-3.429-3.43-3.429-3.43-3.429-3.428-3.43-3.429-3.43-3.429-3.43-3.428-3.429-3.43-3.429-3.43-3.428-3.429-3.43-3.429-3.429-3.429-3.43-3.429-3.429-3.43-3.429-3.428-3.43-3.429-3.43-3.429-3.43-3.428-3.429-3.43-3.429-3.43-3.428-3.43-3.429-3.429-3.43-3.428-3.43-3.429-3.429-3.43-3.429-3.429-3.429-3.43-3.429-3.429-3.43-3.428-3.429-3.43-3.43-3.429-3.428-3.43-3.429-3.429-3.43-2.83l-.598-4.846-3.43-27.753-3.429-27.744-3.43-27.755-3.429-27.744-3.428-27.745-3.429-27.746h3.429 3.428 3.429 3.43 3.429 3.43 3.428 3.43 3.429 3.429 3.43 3.428 3.429 3.43 3.43 3.429 3.428 3.43 3.429 3.429 3.43 3.429 3.429 3.429 3.43 3.429 3.429 3.43 3.428 3.43 3.429 3.429 3.43 3.428 3.43 3.429 3.43 3.429 3.428 3.43 3.429 3.43 3.429 3.43 3.428 3.429 3.43 3.429 3.429 3.43 3.429 3.429 3.429 3.43 3.429 3.428 3.43 3.429 3.43 3.429 3.428 3.43 3.429 3.43 3.429 3.43 3.428 3.429 3.43 3.429 3.43 3.429 3.429 3.429 3.429 3.43 3.429 3.43 3.428 3.43 3.429 3.429 3.43 3.428 3.429 3.43 3.43 3.429 3.428 3.43 3.429 3.429 3.43 3.428 3.43 3.429 3.429 3.43 3.429 3.429 3.429 3.43 3.429 3.429 3.43 3.428 3.43 3.429 3.43 3.429 3.428 3.43 3.429 3.43 3.429 3.43 3.428 3.429 3.43 3.429 3.429 3.429 3.427 3.43 3.43 3.43 3.43 3.43 3.43z"/><path d="m617.774 881.561h808.596l-14.73 169.399-780.393-1.93z"/><path d="m643.04 1143.39 176.881.07 11.541 138.51 191.898 47.59 197.01-55.29 13.33-226.51 178.46-2.8-32 367.92-356.16 103.97-358.725-105.89z"/></g><path d="m1024 880.833 417.13-178.338 17.32-171.341-434.45 180.937z" fill="#fffffe"/><path d="m1024 531.162h2.37 3.43 3.42 3.43 3.43 3.43 3.43 3.43 3.43 3.43 3.43 3.43 3.43 3.43 3.43 3.43 3.42 3.43 3.43 3.43 3.43 3.43 3.43 3.43 3.43 3.43 3.43 3.42 3.43 3.43 3.43 3.43 3.43 3.43 3.43 3.43 3.43 3.43 3.43 3.43 3.43 3.43 3.42 3.43 3.43 3.43 3.43 3.43 3.43 3.43 3.43 3.43 3.43 3.43 3.43 3.42 3.43 3.43 3.43 3.43 3.43 3.43 3.43 3.43 3.43 3.43 3.43 3.42 3.43 3.43 3.43 3.43 3.43 3.43 3.43 3.43 3.43 3.43 3.43 3.43 3.43 3.42 3.43 3.43 3.43 3.43 3.43 3.43 3.43 3.43 3.43 3.43 3.43 3.42 3.43 3.43 3.43 3.43 3.43 3.43 3.43 3.43 3.43 3.43 3.43 3.43 3.43 3.42 3.43 3.43 3.43 3.43 3.43 3.43 3.43 3.43 3.43 3.43 3.43 3.43 3.43 3.42 3.43 3.43 3.43 3.43 3.43l-3.43 33.914-3.43 33.911-3.43 33.911-3.43 33.922-3.43 33.912-.17 1.763h-3.25-3.43-3.43-3.43-3.43-3.43-3.43-3.43-3.43-3.43-3.43-3.43-3.43-3.43-3.42-3.43-3.43-3.43-3.43-3.43-3.43-3.43-3.43-3.43-3.43-3.43-3.43-3.43-3.42-3.43-3.43-3.43-3.43-3.43-3.43-3.43-3.43-3.43-3.43-3.43-3.42-3.43-3.43-3.43-3.43-3.43-3.43-3.43-3.43-3.43-3.43-3.43-3.43-3.43-3.42-3.43-3.43-3.43-3.43-3.43-3.43-3.43-3.43-3.43-3.43-3.43-3.42-3.43-3.43-3.43-3.43-3.43-3.43-3.43-3.43-3.43-3.43-3.43-3.43-3.42-3.43-3.43-3.43-3.43-3.43-3.43-3.43-3.43-3.43-3.43-3.43-3.43-3.43-3.43-3.42-3.43-3.43-3.43-3.43-3.43-3.43-3.43-3.43-3.43-3.43-3.42-3.43-3.43-3.43-3.43-3.43-3.43-3.43-3.43-3.33-.1-3.43-3.43-3.43-3.43-3.42-3.43-2.37z" fill="#fffffe"/><path d="m1024 881.561h402.37l-14.73 169.399-387.64-.96z" fill="#fffffe"/><path d="m1024 1329.38 196.37-55.11 13.33-226.51 178.46-2.8-32 367.92-356.16 103.97v-.01z" fill="#fffffe"/><path d="m0 0h2048v2048h-2048z" fill="none"/></svg>